<svg xmlns="http://www.w3.org/2000/svg" width="360" height="360" viewBox="0 0 360 360">
  <path d="M92.35,134.91 L48.46,178.81 L23,153.36 L92.35,84 L136.25,127.9 L180.15,84 L224.05,127.9 L267.94,84 L337.3,153.36 L311.84,178.81 L267.94,134.91 L224.05,178.81 L180.15,134.91 L136.25,178.81 L92.35,134.91 Z M224.05,224.9 L267.94,181 L337.3,250.35 L311.84,275.81 L267.94,231.91 L224.05,275.81 L180.15,231.91 L136.25,275.81 L92.35,231.91 L48.46,275.81 L23,250.35 L92.35,181 L136.25,224.9 L180.15,181 L224.05,224.9 Z"/>
</svg>
