<svg xmlns="http://www.w3.org/2000/svg" width="360" height="360" viewBox="0 0 360 360">
  <path d="M179.951,65.721 C163.864,44.634 138.485,31 109.976,31 C61.466,31 22,70.466 22,118.976 C22,142.477 31.153,164.57 47.771,181.186 L73.225,155.728 C63.407,145.912 58,132.86 58,118.976 C58,90.316 81.316,67 109.976,67 C138.635,67 161.951,90.316 161.951,118.976 L161.951,329.078 L197.951,329.078 L197.951,118.976 C197.951,90.316 221.268,67 249.927,67 C278.586,67 301.903,90.316 301.903,118.976 C301.903,132.858 296.496,145.911 286.679,155.729 L312.136,181.184 C328.752,164.566 337.903,142.474 337.903,118.976 C337.903,70.466 298.437,31 249.927,31 C221.418,31 196.038,44.634 179.951,65.721 Z"/>
</svg>
