<svg xmlns="http://www.w3.org/2000/svg" width="360" height="360" viewBox="0 0 360 360">
  <path d="M149.98,226.900045 C170.156641,206.743984 175.293572,175.993319 162.763818,150.373621 C150.234065,124.753923 122.807586,109.928952 94.51,113.480045 C127.589805,70.3699961 187.446154,58.3551448 234.6,85.3600452 L252.54,54.1000452 C230.637522,41.5649065 205.835845,34.9800855 180.6,35.0000452 C100.87,35.0000452 36,99.8700452 36,179.600045 L36,179.600045 L36,179.690045 C36.0142749,206.693106 52.2869652,231.030938 77.2353445,241.362631 C102.183724,251.694324 130.898816,245.986959 150,226.900045 L149.98,226.900045 Z M124.52,201.440045 C112.508033,213.439347 93.0441075,213.432502 81.0405827,201.424755 C69.0370578,189.417008 69.0370578,169.953082 81.0405827,157.945335 C93.0441075,145.937588 112.508033,145.930744 124.52,157.930045 C136.516331,169.952708 136.516331,189.417382 124.52,201.440045 Z M324.85,179.699994 L324.89,179.699994 C324.89,259.429994 260.02,324.299994 180.29,324.299994 C154.91176,324.303519 129.979729,317.626466 108,304.939994 L126,273.779994 C173.102363,300.944294 233.035401,289.075646 266.23,246.009994 C263.539405,246.343168 260.831137,246.513478 258.12,246.519994 C221.253383,246.536546 191.352119,216.666598 191.330039,179.799985 C191.307959,142.933371 221.173421,113.027628 258.040031,113.000019 C294.906641,112.97241 324.816863,142.833388 324.85,179.699994 Z M236.36,201.539994 L236.37,201.539994 C242.112171,207.357744 249.945727,210.632551 258.12,210.632551 C266.294273,210.632551 274.127829,207.357744 279.87,201.539994 C291.878955,189.526184 291.876331,170.052289 279.864139,158.041716 C267.851947,146.031142 248.378053,146.031142 236.365861,158.041716 C224.353669,170.052289 224.351045,189.526184 236.36,201.539994 Z"/>
</svg>
