<svg xmlns="http://www.w3.org/2000/svg" width="360" height="360" viewBox="0 0 360 360">
  <path d="M326.85,231.255949 L326.85,231.255949 L284.08,157.025949 C314.980792,152.890149 337.151909,125.164665 334.391071,94.1108148 C331.630232,63.0569651 304.91565,39.6776579 273.769892,41.0580988 C242.624135,42.4385397 218.082675,68.0896148 218.08,99.2659489 C218.065409,106.588828 219.443206,113.847713 222.14,120.655949 L222.14,121.525949 L189.14,121.525949 L134.86,215.525949 L80.58,121.525949 L26,121.525949 L26,157.525949 L59.87,157.525949 L134.93,287.525949 L209.99,157.525949 L242.8,157.525949 L295.64,249.235949 L311.24,240.235949 L295.65,249.235949 C299.626366,256.124029 299.625933,264.610245 295.648863,271.497919 C291.671793,278.385593 284.322299,282.628325 276.368863,282.627919 C268.415427,282.627513 261.066366,278.38403 257.09,271.495949 L225.91,289.495949 C233.61123,302.91401 246.362959,312.691176 261.32,316.645949 C266.270777,317.973524 271.374315,318.645927 276.5,318.645949 C297.294901,318.595209 316.488471,307.471969 326.871079,289.454423 C337.253687,271.436878 337.253276,249.25311 326.87,231.235949 L326.85,231.255949 Z M263.62,121.515949 L256.13,108.515949 C254.798776,105.61115 254.116288,102.451231 254.13,99.2559489 C254.13,86.9620904 264.096141,76.9959489 276.39,76.9959489 C288.683859,76.9959489 298.65,86.9620904 298.65,99.2559489 C298.65,111.549807 288.683859,121.515949 276.39,121.515949 L263.62,121.515949 Z"/>
</svg>
