<svg xmlns="http://www.w3.org/2000/svg" width="360" height="360" viewBox="0 0 360 360">
  <path d="M198,177.7 L198,142.29 L230.54,174.83 L256,149.38 L214.36,107.74 L256.09,66 L230.64,40.51 L197.91,73.24 L197.91,21.66 L161.91,21.66 L162.03,177.66 C121.644152,186.825512 94.5943611,224.874137 99.2057961,266.029429 C103.817231,307.18472 138.61716,338.303107 180.03,338.303107 C221.44284,338.303107 256.242769,307.18472 260.854204,266.029429 C265.465639,224.874137 238.415848,186.825512 198.03,177.66 L198,177.7 Z M180,302.34 C154.966234,302.339999 134.671842,282.047098 134.670001,257.013333 C134.668161,231.979567 154.959569,211.683682 179.993335,211.68 C205.0271,211.676319 225.324477,231.966235 225.33,257 C225.302455,282.025269 205.025262,302.306935 180,302.34 Z"/>
</svg>
