<svg xmlns="http://www.w3.org/2000/svg" width="360" height="360" viewBox="0 0 360 360">
  <path d="M180.71,22 C93.57,22 22.71,92.9 22.71,180 C22.71,267.1 93.61,338 180.71,338 C267.81,338 338.71,267.1 338.71,180 C338.71,92.9 267.86,22 180.71,22 Z M301.42,162 L198.72,162 L198.72,59.29 C251.775066,67.2963985 293.418767,108.944154 301.42,162 Z M162.72,59.29 L162.72,162 L60,162 C68.003555,108.937939 109.65716,67.288389 162.72,59.29 L162.72,59.29 Z M60,198 L162.72,198 L162.72,300.71 C109.65716,292.711611 68.003555,251.062061 60,198 L60,198 Z M198.72,300.71 L198.72,198 L301.42,198 C293.418767,251.055846 251.775066,292.703601 198.72,300.71 L198.72,300.71 Z"/>
</svg>
