<svg xmlns="http://www.w3.org/2000/svg" width="360" height="360" viewBox="0 0 360 360">
  <path d="M319.59,222.75 L249.31,222.75 L249.31,154.33 L213.31,154.33 L213.31,222.75 L143.74,222.75 L183.82,153.32 C206.126546,113.771202 192.42122,63.6355179 153.097691,40.9342073 C113.774162,18.2328967 63.5038001,31.4356804 40.41,70.53 L71.59,88.53 C79.9500146,74.0500253 95.3999613,65.1299916 112.119995,65.1299895 C128.840028,65.1299874 144.289977,74.0500172 152.649995,88.5299898 C161.010013,103.009962 161.010015,120.850026 152.65,135.33 L81.38,258.75 L213.31,258.75 L213.31,330.91 L249.31,330.91 L249.31,258.75 L319.6,258.75 L319.59,222.75 Z"/>
</svg>
