<svg xmlns="http://www.w3.org/2000/svg" width="360" height="360" viewBox="0 0 360 360">
  <path d="M264.951636,178.800562 L223.361636,250.800562 L223.291636,250.800562 C212.522156,269.478407 212.51773,292.478796 223.280023,311.160783 C234.042315,329.842771 253.94147,341.377134 275.501636,341.430562 C280.813339,341.427662 286.101739,340.72837 291.231636,339.350562 C306.711632,335.244245 319.907511,325.119603 327.881636,311.230562 L296.701636,293.230562 C290.124291,304.536811 275.801492,308.645351 264.230973,302.544874 C252.660454,296.444396 247.958624,282.305249 253.571636,270.490562 L296.101636,196.830562 L296.101636,196.830562 C323.655818,149.158177 314.748504,88.7878008 274.600562,51.1044879 C234.45262,13.4211749 173.639638,8.35129145 127.806094,38.866462 C81.972551,69.3816326 63.1917096,127.44369 82.4716359,179.020562 C54.9700884,183.604152 34.1794099,206.416271 32.1599746,234.223937 C30.1405394,262.031603 47.4171533,287.608227 73.9679006,296.117176 C100.518648,304.626126 129.443585,293.856116 143.96377,270.054674 C158.483956,246.253233 154.82592,215.605821 135.111636,195.890562 L134.541636,195.350562 C104.652734,164.875507 102.934525,116.637278 130.579434,84.1129116 C158.224343,51.5885449 206.109099,45.5116128 241.001974,70.0994691 C275.894849,94.6873254 286.280625,141.825575 264.951636,178.800562 L264.951636,178.800562 Z M109.651636,255.850562 L109.651636,255.850562 C100.205171,265.299243 84.9163392,265.3933 75.3543373,256.06156 C65.7923355,246.729819 65.5137645,231.443236 74.7294215,221.769306 C83.9450786,212.095376 99.2271867,211.632331 109.011636,220.730562 L109.071636,220.800562 L109.071636,220.800562 L109.651636,221.350562 C119.175889,230.878576 119.175889,246.322549 109.651636,255.850562 L109.651636,255.850562 Z"/>
</svg>
