<svg xmlns="http://www.w3.org/2000/svg" width="360" height="360" viewBox="0 0 360 360">
  <path d="M22,275 L338.08,275 L338.08,311 L22,311 L22,275 Z M277.27,185.015 L338,185.015 L338,221.015 L233.93,221.015 L233.93,194.855 C239.77,183.395 248,162.835 248,153.015 C248,115.459637 217.555363,85.015 180,85.015 C142.444637,85.015 112,115.459637 112,153.015 C112,162.895 120.19,183.435 126,194.855 L126,221.015 L22,221.015 L22,185.015 L82.76,185.015 C79.1,174.675 76,162.965 76,153.015 C76,95.5691017 122.569102,49 180.015,49 C237.460898,49 284.03,95.5691017 284.03,153.015 C284.03,162.925 280.93,174.645 277.27,185.015 Z"/>
</svg>
