<svg xmlns="http://www.w3.org/2000/svg" width="360" height="360" viewBox="0 0 360 360">
  <path d="M240,21.92 L240,57.92 L276.58,57.92 L216.13,118.37 C195.197526,102.808422 169.793078,94.4349867 143.71,94.5 L143.71,94.5 C76.4472403,94.5 21.92,149.02724 21.92,216.29 C21.92,283.55276 76.4472403,338.08 143.71,338.08 L143.71,338.08 C189.698156,338.069051 231.760582,312.161046 252.461456,271.095434 C273.162329,230.029823 268.972985,180.806639 241.63,143.83 L302.08,83.38 L302.08,120 L338.08,120 L338.08,22 L240,21.92 Z M204.38,277 C179.844831,301.537346 142.944425,308.878569 110.885965,295.600353 C78.8275045,282.322137 57.9246186,251.039509 57.9246186,216.34 C57.9246186,181.640491 78.8275045,150.357863 110.885965,137.079647 C142.944425,123.801431 179.844831,131.142654 204.38,155.68 L204.38,155.68 C237.879491,189.182463 237.879491,243.497537 204.38,277 L204.38,277 Z"/>
</svg>
