<svg xmlns="http://www.w3.org/2000/svg" width="360" height="360" viewBox="0 0 360 360">
  <path d="M230.95,85 C250.159183,69.5904728 261.337378,46.296129 261.34,21.67 L225.34,21.67 C225.34,46.7078291 205.042829,67.005 180.005,67.005 C154.967171,67.005 134.67,46.7078291 134.67,21.67 L98.67,21.67 C98.6701884,46.2944471 109.844562,69.5884926 129.05,85 C104.722236,104.531961 93.7229898,136.266385 100.74493,166.664246 C107.76687,197.062108 131.570364,220.75706 162,227.64 L162,265.64 L126.14,265.64 L126.14,301.64 L162,301.64 L162,338.38 L198,338.38 L198,301.6 L233.86,301.6 L233.86,265.6 L198,265.6 L198,227.6 C228.410481,220.705727 252.194936,197.019578 259.215103,166.637913 C266.23527,136.256248 255.253175,104.536734 230.95,85 L230.95,85 Z M180,193.67 C154.964932,193.67 134.67,173.375068 134.67,148.34 C134.67,123.304932 154.964932,103.01 180,103.01 C205.035068,103.01 225.33,123.304932 225.33,148.34 C225.296947,173.361364 205.021364,193.636947 180,193.67 L180,193.67 Z"/>
</svg>
