<svg xmlns="http://www.w3.org/2000/svg" width="360" height="360" viewBox="0 0 360 360">
  <path d="M185,180.5 C185.030693,113.351189 232.707239,55.6694908 298.65,43 C289.294544,37.6683651 279.416,33.3121548 269.17,30 L266.95,29.3 L266.23,29.09 C263.503333,28.2766667 260.756667,27.5333333 257.99,26.86 L257.71,26.79 L255,26.17 L254.45,26.05 L251.73,25.48 L251.65,25.48 C248.816667,24.92 245.97,24.44 243.11,24.04 L242.23,23.92 L239.87,23.62 L238.74,23.49 L236.45,23.24 L235.37,23.14 C234.123333,23.0266667 232.873333,22.9266667 231.62,22.84 L229.75,22.72 L228.08,22.64 L226,22.55 L224.57,22.55 L221.2,22.55 L220.97,22.55 C133.84,22.55 62.97,93.45 62.97,180.55 C62.97,267.65 133.85,338.55 220.97,338.55 L221.2,338.55 L224.57,338.55 L226,338.55 L228.15,338.47 L229.82,338.39 L231.69,338.27 C232.95,338.183333 234.206667,338.083333 235.46,337.97 L236.53,337.88 L238.82,337.63 L239.95,337.5 L242.31,337.2 L243.19,337.08 C246.05,336.673333 248.896667,336.193333 251.73,335.64 L251.81,335.64 L254.53,335.07 L255.08,334.95 L257.77,334.33 L258.04,334.26 C260.806667,333.593333 263.556667,332.85 266.29,332.03 L267.01,331.82 L269.23,331.12 C279.476,327.807845 289.354544,323.451635 298.71,318.12 C232.699024,305.46725 184.978669,247.712652 185,180.5 L185,180.5 Z M98.86,180.5 C98.9398975,118.945276 144.784366,67.0553359 205.86,59.39 C196.283958,67.4528529 187.691378,76.616034 180.26,86.69 C139.128047,142.466978 139.128047,218.533022 180.26,274.31 C187.691378,284.383966 196.283958,293.547147 205.86,301.61 C144.784366,293.944664 98.9398975,242.054724 98.86,180.5 L98.86,180.5 Z"/>
</svg>
