<svg xmlns="http://www.w3.org/2000/svg" width="360" height="360" viewBox="0 0 360 360">
  <path d="M89.64,310.58 L89.64,310.58 L89.64,310.58 C90.64,311.246667 91.64,311.933333 92.64,312.64 L92.64,312.64 C108.472081,323.1751 126.083828,330.751065 144.62,335 L144.62,335 L145.23,335.13 C146.28,335.37 147.34,335.6 148.4,335.82 L148.4,335.82 L148.61,335.82 C151.23,336.353333 153.876667,336.816667 156.55,337.21 L156.55,337.21 L159.3,337.6 L159.3,337.6 C160.38,337.74 161.46,337.87 162.55,337.98 L163.1,338.04 L163.1,338.04 C165.28,338.273333 167.473333,338.46 169.68,338.6 L171.31,338.7 L171.31,338.7 L172.47,338.76 L172.47,338.76 L173.05,338.76 C175.32,338.86 177.6,338.92 179.9,338.92 C182.62,338.92 185.326667,338.85 188.02,338.71 C191.75,338.52 195.44,338.19 199.09,337.71 L201.09,337.45 C205.243333,336.89 209.343333,336.17 213.39,335.29 C214.723333,334.996667 216.056667,334.69 217.39,334.37 C281.73,318.65 330.74,263.45 337.19,196 C337.4,193.76 337.58,191.5 337.7,189.24 C337.846667,186.46 337.92,183.663333 337.92,180.85 C337.92,178.036667 337.846667,175.24 337.7,172.46 C337.58,170.19 337.41,167.94 337.19,165.7 C330.74,98.25 281.73,43.05 217.39,27.33 C216.056667,27.0033333 214.723333,26.6966667 213.39,26.41 C209.343333,25.5366667 205.243333,24.8166667 201.09,24.25 L199.09,23.99 C195.44,23.55 191.75,23.22 188.02,22.99 C185.353333,22.85 182.646667,22.78 179.9,22.78 C177.6,22.78 175.32,22.84 173.05,22.94 L172.47,22.94 L172.47,22.94 L171.31,23 L171.31,23 L168.31,23.19 L168.2,23.19 L167.65,23.19 L167.65,23.19 C166.75,23.26 165.86,23.34 164.97,23.43 L163.09,23.61 L163.09,23.61 L162.54,23.67 C161.45,23.79 160.37,23.91 159.29,24.05 L159.29,24.05 L156.54,24.44 L156.54,24.44 C153.873333,24.84 151.226667,25.3033333 148.6,25.83 L148.39,25.83 L148.39,25.83 C146.976667,26.1166667 145.566667,26.4233333 144.16,26.75 L144.16,26.75 L143.94,26.8 C134.188251,29.0849014 124.678063,32.2996127 115.54,36.4 L115.54,36.4 C114.406667,36.9066667 113.28,37.43 112.16,37.97 L112.16,37.97 C111.04,38.5033333 109.93,39.05 108.83,39.61 L108.83,39.61 C107.723333,40.17 106.623333,40.7433333 105.53,41.33 L105.53,41.33 C104.436667,41.9166667 103.35,42.5166667 102.27,43.13 L102.27,43.13 C100.09,44.59 97.9433333,45.98 95.83,47.3 L95.83,47.3 C94.79,47.9666667 93.7566667,48.6333333 92.73,49.3 L92.73,49.3 C91.7166667,49.9666667 90.7166667,50.6533333 89.73,51.36 L89.73,51.36 L89.73,51.36 C47.3289895,80.8791896 22.0523922,129.275426 22.0523922,180.94 C22.0523922,232.604574 47.3289895,281.00081 89.73,310.52 L89.64,310.58 Z M195.08,302.11 C204.652982,294.04703 213.242236,284.883817 220.67,274.81 C261.801953,219.033022 261.801953,142.966978 220.67,87.19 C213.242236,77.1161833 204.652982,67.9529696 195.08,59.89 L195.3,59.89 L196.53,60.06 L198.23,60.3 L199.5,60.5 L201.14,60.77 L202.43,61.01 L204.03,61.32 L205.32,61.59 L206.9,61.94 L208.18,62.24 L209.75,62.62 L211,63 L212.57,63.43 L213.8,63.78 L215.39,64.25 L216.58,64.61 L218.22,65.14 L219.33,65.51 L221.08,66.13 L222.08,66.47 L224.29,67.31 L224.76,67.49 C225.646667,67.8433333 226.53,68.2033333 227.41,68.57 L228.21,68.92 L230.04,69.72 L231.04,70.18 L232.64,70.93 L233.71,71.45 L235.21,72.19 L236.3,72.75 L237.74,73.51 L238.83,74.11 L240.23,74.9 L241.31,75.53 L242.69,76.35 L243.76,77 L245.12,77.85 L246.12,78.51 L247.48,79.41 L248.48,80.08 L249.87,81.08 L250.81,81.74 L252.27,82.81 L253.09,83.41 C253.676667,83.85 254.26,84.3 254.84,84.76 L255.33,85.14 C256.07,85.7266667 256.803333,86.32 257.53,86.92 L258.08,87.38 L259.69,88.74 L260.47,89.43 L261.81,90.62 L262.66,91.4 L263.89,92.54 L264.76,93.38 L265.92,94.51 L266.79,95.38 L267.91,96.53 L268.76,97.43 L269.85,98.6 L270.69,99.52 L271.75,100.71 L272.56,101.64 L273.56,102.88 L274.33,103.81 L275.33,105.11 L276.06,106.02 L277.13,107.42 L277.78,108.27 C278.19,108.82 278.6,109.38 279,109.94 L279.44,110.55 C279.986667,111.316667 280.526667,112.093333 281.06,112.88 L281.39,113.39 C281.8,114.01 282.21,114.62 282.61,115.25 L283.16,116.13 C283.48,116.64 283.8,117.13 284.16,117.66 L284.75,118.66 C285.04,119.14 285.33,119.66 285.61,120.11 L286.21,121.17 L287.01,122.59 L287.6,123.69 L288.35,125.11 L288.92,126.23 L289.63,127.66 L290.18,128.8 L290.86,130.26 L291.38,131.41 C291.6,131.91 291.82,132.41 292.03,132.9 L292.52,134.04 C292.74,134.55 292.94,135.04 293.15,135.58 C293.36,136.12 293.45,136.32 293.6,136.7 C293.81,137.25 294.02,137.79 294.23,138.34 C294.36,138.69 294.5,139.03 294.62,139.34 C294.85,139.96 295.07,140.59 295.28,141.22 L295.57,142.06 C295.876667,142.973333 296.173333,143.886667 296.46,144.8 L296.59,145.22 C296.83,146 297.07,146.79 297.29,147.57 C297.38,147.9 297.47,148.23 297.56,148.57 C297.73,149.17 297.89,149.78 298.05,150.38 C298.15,150.76 298.24,151.14 298.33,151.52 C298.47,152.08 298.61,152.65 298.74,153.21 C298.83,153.61 298.92,154.02 299.01,154.42 C299.1,154.82 299.25,155.51 299.37,156.06 C299.49,156.61 299.54,156.9 299.62,157.32 C299.7,157.74 299.83,158.4 299.93,158.95 C300.03,159.5 300.08,159.8 300.16,160.23 C300.24,160.66 300.34,161.32 300.43,161.86 C300.52,162.4 300.56,162.72 300.63,163.15 C300.7,163.58 300.79,164.24 300.86,164.79 C300.93,165.34 300.97,165.65 301.03,166.09 C301.09,166.53 301.16,167.21 301.22,167.76 C301.28,168.31 301.31,168.62 301.36,169.05 C301.41,169.48 301.47,170.2 301.51,170.77 C301.51,171.19 301.58,171.61 301.61,172.03 C301.61,172.63 301.69,173.23 301.72,173.84 C301.72,174.24 301.77,174.63 301.79,175.03 C301.79,175.7 301.84,176.37 301.87,177.03 L301.87,178.03 L301.87,181.03 L301.87,184.03 L301.87,185.03 C301.87,185.7 301.87,186.37 301.79,187.03 C301.79,187.43 301.79,187.82 301.72,188.22 C301.72,188.82 301.65,189.43 301.61,190.03 C301.61,190.45 301.54,190.87 301.51,191.29 C301.51,191.86 301.41,192.44 301.36,193.01 C301.31,193.58 301.27,193.87 301.22,194.3 C301.17,194.73 301.1,195.42 301.03,195.97 C300.96,196.52 300.92,196.84 300.86,197.27 C300.8,197.7 300.71,198.37 300.63,198.91 C300.55,199.45 300.5,199.77 300.43,200.2 C300.36,200.63 300.25,201.29 300.16,201.83 C300.07,202.37 300.01,202.68 299.93,203.11 C299.85,203.54 299.73,204.2 299.62,204.74 C299.51,205.28 299.45,205.58 299.37,206 C299.29,206.42 299.13,207.1 299.01,207.64 C298.89,208.18 298.83,208.45 298.74,208.85 C298.61,209.42 298.47,209.98 298.33,210.54 C298.24,210.92 298.14,211.3 298.05,211.68 C297.89,212.29 297.72,212.89 297.56,213.49 C297.47,213.82 297.38,214.15 297.29,214.49 C297.06,215.28 296.83,216.06 296.59,216.84 L296.46,217.26 C296.173333,218.18 295.876667,219.093333 295.57,220 L295.28,220.84 C295.06,221.47 294.84,222.09 294.62,222.72 C294.49,223.07 294.36,223.42 294.23,223.72 C294.02,224.27 293.82,224.82 293.6,225.36 C293.45,225.73 293.3,226.1 293.15,226.48 C293,226.86 292.73,227.48 292.52,228.02 L292.03,229.16 C291.81,229.66 291.6,230.16 291.38,230.65 L290.86,231.8 L290.18,233.26 L289.63,234.4 L288.92,235.83 L288.35,236.95 L287.6,238.37 L287.01,239.47 L286.21,240.89 L285.61,241.95 C285.33,242.44 285.04,242.95 284.75,243.4 L284.16,244.4 C283.85,244.91 283.52,245.4 283.16,245.93 L282.61,246.81 C282.21,247.43 281.8,248.05 281.39,248.67 L281.06,249.18 C280.533333,249.96 279.993333,250.736667 279.44,251.51 L279,252.12 C278.6,252.68 278.19,253.24 277.78,253.79 L277.13,254.64 L276.06,256.04 L275.33,256.95 L274.33,258.25 L273.56,259.18 L272.56,260.42 L271.75,261.35 L270.69,262.54 L269.85,263.46 L268.76,264.63 L267.91,265.53 L266.79,266.68 L265.92,267.55 L264.76,268.68 L263.89,269.52 L262.66,270.66 L261.81,271.44 L260.47,272.63 L259.69,273.32 L258.08,274.68 L257.53,275.14 C256.803333,275.74 256.07,276.333333 255.33,276.92 L254.84,277.3 C254.26,277.753333 253.676667,278.203333 253.09,278.65 L252.27,279.25 L250.81,280.32 L249.87,280.98 L248.48,281.98 L247.48,282.65 L246.12,283.55 L245.12,284.21 L243.76,285.06 L242.69,285.71 L241.31,286.53 L240.23,287.16 L238.83,287.95 L237.74,288.55 L236.3,289.31 L235.21,289.87 L233.71,290.61 L232.64,291.13 L231.04,291.88 L230.04,292.34 L228.21,293.14 L227.41,293.49 C226.53,293.863333 225.646667,294.223333 224.76,294.57 L224.29,294.75 L222.08,295.59 L221.08,295.93 L219.33,296.55 L218.22,296.92 L216.58,297.45 L215.39,297.81 L213.8,298.28 L212.57,298.63 L211,299 L209.74,299.32 L208.17,299.7 L206.89,299.99 L205.31,300.34 L204.02,300.61 L202.42,300.92 L201.13,301.16 L199.49,301.43 L198.22,301.63 L196.52,301.87 L195.29,302.04 L195.08,302.11 Z"/>
</svg>
