<svg xmlns="http://www.w3.org/2000/svg" width="360" height="360" viewBox="0 0 360 360">
  <path d="M338.54,180 C338.520672,128.339596 313.247402,79.9514397 270.86,50.42 L270.86,50.42 L270.86,50.42 C269.86,49.7533333 268.86,49.0666667 267.86,48.36 L267.86,48.36 C266.833333,47.6933333 265.8,47.0266667 264.76,46.36 L264.76,46.36 C262.666667,45.0266667 260.543333,43.7533333 258.39,42.54 L258.39,42.54 C257.31,41.9266667 256.223333,41.3266667 255.13,40.74 L255.13,40.74 C254.036667,40.1533333 252.936667,39.58 251.83,39.02 L251.83,39.02 C250.723333,38.46 249.613333,37.9133333 248.5,37.38 L248.5,37.38 C247.38,36.8466667 246.253333,36.3233333 245.12,35.81 L245.12,35.81 C235.981937,31.7096127 226.471749,28.4949014 216.72,26.21 L216.5,26.16 L216.5,26.16 C215.1,25.8333333 213.69,25.5266667 212.27,25.24 L212.27,25.24 L212.06,25.24 C209.44,24.7066667 206.793333,24.2433333 204.12,23.85 L204.12,23.85 L201.37,23.46 L201.37,23.46 C200.29,23.32 199.21,23.19 198.12,23.08 L197.57,23.02 L197.57,23.02 L195.69,22.84 C194.8,22.76 193.91,22.67 193.01,22.6 L193.01,22.6 L192.46,22.6 L192.35,22.6 L189.35,22.41 L189.35,22.41 L188,22.14 L188,22.14 L187.42,22.14 C185.15,22.04 182.87,21.98 180.57,21.98 C177.85,21.98 175.143333,22.05 172.45,22.19 C168.72,22.38 165.03,22.71 161.38,23.19 L159.38,23.45 C155.226667,24.01 151.126667,24.73 147.08,25.61 C145.746667,25.9033333 144.413333,26.21 143.08,26.53 C78.66,42.19 29.64,97.39 23.19,164.84 C22.98,167.08 22.8,169.34 22.68,171.6 C22.5333333,174.38 22.46,177.176667 22.46,179.99 C22.46,182.803333 22.5333333,185.6 22.68,188.38 C22.8,190.65 22.97,192.9 23.19,195.14 C29.64,262.61 78.66,317.81 143,333.53 C144.333333,333.856667 145.666667,334.163333 147,334.45 C151.046667,335.323333 155.146667,336.043333 159.3,336.61 L161.3,336.87 C164.95,337.31 168.64,337.64 172.37,337.87 C175.036667,338.01 177.743333,338.08 180.49,338.08 C182.79,338.08 185.07,338.02 187.34,337.92 L187.92,337.92 L187.92,337.92 L189.08,337.86 L189.08,337.86 L190.71,337.76 C192.916667,337.62 195.11,337.433333 197.29,337.2 L197.29,337.2 L197.84,337.14 C198.93,337.02 200.01,336.9 201.09,336.76 L201.09,336.76 L203.84,336.37 L203.84,336.37 C206.506667,335.97 209.153333,335.506667 211.78,334.98 L211.99,334.98 L211.99,334.98 C213.05,334.76 214.11,334.53 215.16,334.29 L215.77,334.16 L215.77,334.16 C234.278316,329.901923 251.862206,322.326281 267.67,311.8 L267.67,311.8 C268.683333,311.133333 269.683333,310.446667 270.67,309.74 L270.67,309.74 L270.67,309.74 C313.175874,280.21841 338.529756,231.752039 338.54,180 Z M165.21,301.08 L163.98,300.91 L162.28,300.67 L161.01,300.47 L159.37,300.2 L158.08,299.96 L156.48,299.65 L155.19,299.38 L153.6,299 L152.32,298.71 L150.75,298.33 L149.49,298.01 L147.92,297.58 L146.69,297.23 L145.1,296.76 L143.91,296.4 L142.27,295.87 L141.16,295.5 L139.41,294.88 L138.41,294.54 L136.2,293.7 L135.73,293.52 C134.843333,293.166667 133.96,292.806667 133.08,292.44 L132.28,292.09 L130.45,291.29 L129.45,290.83 L127.85,290.08 L126.78,289.56 L125.28,288.82 L124.19,288.26 L122.75,287.5 L121.66,286.9 L120.26,286.11 L119.18,285.49 L117.8,284.67 L116.73,284.02 L115.37,283.17 L114.37,282.51 L113.01,281.61 L112.01,280.94 L110.62,279.94 L109.68,279.28 L108.22,278.21 L107.4,277.61 C106.813333,277.17 106.23,276.72 105.65,276.26 L105.16,275.88 C104.42,275.293333 103.686667,274.7 102.96,274.1 L102.41,273.64 L100.8,272.28 L100.02,271.59 L98.68,270.4 L97.83,269.62 L96.6,268.48 L95.73,267.64 L94.57,266.51 L93.7,265.64 L92.58,264.49 L91.73,263.59 L90.64,262.42 L89.8,261.5 L88.74,260.31 L87.93,259.38 L86.93,258.14 L86.16,257.21 L85.16,255.91 L84.43,255 L83.36,253.6 L82.71,252.75 C82.3,252.2 81.89,251.64 81.49,251.08 L81.05,250.47 C80.5033333,249.703333 79.9633333,248.926667 79.43,248.14 L79.1,247.63 C78.69,247.01 78.28,246.4 77.88,245.77 L77.33,244.89 C77.01,244.38 76.69,243.89 76.33,243.36 L75.74,242.36 C75.45,241.88 75.16,241.36 74.88,240.91 L74.28,239.85 L73.48,238.43 L72.89,237.33 L72.1,236 L71.53,234.88 L70.82,233.45 L70.27,232.31 L69.59,230.85 L69.07,229.7 C68.85,229.2 68.63,228.7 68.42,228.21 L67.93,227.07 C67.71,226.56 67.51,226.07 67.3,225.53 C67.09,224.99 67,224.79 66.85,224.41 C66.64,223.86 66.43,223.32 66.22,222.77 C66.09,222.42 65.95,222.08 65.83,221.77 C65.6,221.15 65.38,220.52 65.17,219.89 L64.88,219.05 C64.5733333,218.136667 64.2766667,217.223333 63.99,216.31 L63.86,215.89 C63.62,215.11 63.38,214.32 63.16,213.54 C63.07,213.21 62.98,212.88 62.89,212.54 C62.72,211.94 62.56,211.33 62.4,210.73 C62.3,210.35 62.21,209.97 62.12,209.59 C61.98,209.03 61.84,208.47 61.71,207.9 C61.62,207.5 61.53,207.09 61.44,206.69 C61.35,206.29 61.2,205.6 61.08,205.05 C60.96,204.5 60.91,204.21 60.83,203.79 C60.75,203.37 60.62,202.71 60.52,202.16 C60.42,201.61 60.37,201.31 60.29,200.88 C60.21,200.45 60.11,199.79 60.02,199.25 C59.93,198.71 59.89,198.39 59.82,197.96 C59.75,197.53 59.66,196.87 59.59,196.32 C59.52,195.77 59.48,195.46 59.42,195.02 C59.36,194.58 59.29,193.9 59.23,193.35 C59.17,192.8 59.14,192.49 59.09,192.06 C59.04,191.63 58.99,190.91 58.94,190.34 C58.94,189.92 58.87,189.5 58.84,189.08 C58.84,188.48 58.76,187.88 58.73,187.27 C58.73,186.87 58.68,186.48 58.66,186.08 C58.66,185.41 58.61,184.74 58.58,184.08 L58.58,183.08 L58.58,180.08 L58.58,177.08 L58.58,176.08 C58.58,175.41 58.58,174.74 58.66,174.08 C58.66,173.68 58.66,173.29 58.73,172.89 C58.73,172.29 58.8,171.68 58.84,171.08 C58.84,170.66 58.91,170.24 58.94,169.82 C58.94,169.25 59.04,168.67 59.09,168.1 C59.14,167.53 59.18,167.24 59.23,166.81 C59.28,166.38 59.35,165.69 59.42,165.14 C59.49,164.59 59.53,164.27 59.59,163.84 C59.65,163.41 59.74,162.74 59.82,162.2 C59.9,161.66 59.95,161.34 60.02,160.91 C60.09,160.48 60.2,159.82 60.29,159.28 C60.38,158.74 60.44,158.43 60.52,158 C60.6,157.57 60.72,156.91 60.83,156.37 C60.94,155.83 61,155.53 61.08,155.11 C61.16,154.69 61.32,154.01 61.44,153.47 C61.56,152.93 61.62,152.66 61.71,152.26 C61.84,151.69 61.98,151.13 62.12,150.57 C62.21,150.19 62.31,149.81 62.4,149.43 C62.56,148.82 62.73,148.22 62.89,147.62 C62.98,147.29 63.07,146.96 63.16,146.62 C63.39,145.83 63.62,145.05 63.86,144.27 L63.99,143.85 C64.2766667,142.93 64.5733333,142.016667 64.88,141.11 L65.17,140.27 C65.39,139.64 65.61,139.02 65.83,138.39 C65.96,138.04 66.09,137.69 66.22,137.39 C66.43,136.84 66.63,136.29 66.85,135.75 C67,135.38 67.15,135.01 67.3,134.63 C67.45,134.25 67.72,133.63 67.93,133.09 L68.42,131.95 C68.64,131.45 68.85,130.95 69.07,130.46 L69.59,129.31 L70.27,127.85 L70.82,126.71 L71.53,125.28 L72.1,124 L72.85,122.58 L73.44,121.48 L74.24,120.06 L74.84,119 C75.12,118.51 75.41,118 75.7,117.55 L76.29,116.55 C76.6,116.04 76.93,115.55 77.29,115.02 L77.84,114.14 C78.24,113.52 78.65,112.9 79.06,112.28 L79.39,111.77 C79.9166667,110.99 80.4566667,110.213333 81.01,109.44 L81.45,108.83 C81.85,108.27 82.26,107.71 82.67,107.16 L83.32,106.31 L84.39,104.91 L85.12,104 L86.12,102.7 L86.89,101.77 L87.89,100.53 L88.7,99.6 L89.76,98.41 L90.6,97.49 L91.69,96.32 L92.54,95.42 L93.66,94.27 L94.53,93.4 L95.69,92.27 L96.56,91.43 L97.79,90.29 L98.64,89.51 L100,88.34 L100.78,87.65 L102.39,86.29 L102.94,85.83 C103.666667,85.23 104.4,84.6366667 105.14,84.05 L105.63,83.67 C106.21,83.2166667 106.793333,82.7666667 107.38,82.32 L108.2,81.72 L109.66,80.65 L110.6,79.99 L112,79 L113,78.33 L114.36,77.43 L115.36,76.77 L116.72,75.92 L117.79,75.27 L119.17,74.45 L120.25,73.83 L121.65,73.04 L122.74,72.44 L124.18,71.68 L125.27,71.12 L126.77,70.38 L127.84,69.86 L129.44,69.11 L130.44,68.65 L132.27,67.85 L133.07,67.5 C133.95,67.1266667 134.833333,66.7666667 135.72,66.42 L136.19,66.24 L138.4,65.4 L139.4,65.06 L141.15,64.44 L142.26,64.07 L143.9,63.54 L145.09,63.18 L146.68,62.71 L147.91,62.36 L149.48,61.93 L150.74,61.61 L152.31,61.23 L153.59,60.93 L155.17,60.58 L156.46,60.31 L158.06,60 L159.35,59.76 L160.99,59.49 L162.26,59.29 L163.96,59.05 L165.19,58.88 L165.41,58.88 C155.837018,66.9429696 147.247764,76.1061833 139.82,86.18 C98.6880471,141.956978 98.6880471,218.023022 139.82,273.8 C147.247692,283.873876 155.836954,293.037098 165.41,301.1 L165.21,301.08 Z"/>
</svg>
