<svg xmlns="http://www.w3.org/2000/svg" width="360" height="360" viewBox="0 0 360 360">
  <path d="M247.71,21.67 L247.71,125.52 C247.673578,156.136386 227.221566,182.969425 197.71,191.12 L197.71,21.67 L161.71,21.67 L161.71,191.12 C132.198434,182.969425 111.746422,156.136386 111.71,125.52 L111.71,21.67 L75.71,21.67 L75.71,125.52 C75.7721341,175.99861 112.007299,219.17323 161.71,227.99 L161.71,265.59 L125.71,265.59 L125.71,301.59 L161.71,301.59 L161.71,338.33 L197.71,338.33 L197.71,301.6 L233.44,301.6 L233.44,265.6 L197.68,265.6 L197.68,228 C247.382701,219.18323 283.617866,176.00861 283.68,125.53 L283.68,21.67 L247.71,21.67 Z"/>
</svg>
