<svg xmlns="http://www.w3.org/2000/svg" width="360" height="360" viewBox="0 0 360 360">
  <path d="M323.77,216.89 C314.892302,207.957146 303.426464,202.047533 291,200 C309.418406,150.722002 293.143486,95.2004366 251.036176,63.6642156 C208.928867,32.1279947 151.071133,32.1279947 108.963824,63.6642156 C66.8565143,95.2004366 50.5815936,150.722002 69,200 C41.4984525,204.583589 20.707774,227.395708 18.6883387,255.203374 C16.6689035,283.01104 33.9455174,308.587664 60.4962647,317.096614 C87.047012,325.605564 115.971949,314.835553 130.492134,291.034112 C145.01232,267.23267 141.354284,236.585259 121.64,216.87 L121.07,216.33 C89.2952251,183.939281 89.627781,131.972785 121.814501,99.9913833 C154.00122,68.0099813 205.96878,68.0099813 238.155499,99.9913833 C270.342219,131.972785 270.674775,183.939281 238.9,216.33 L238.34,216.86 C221.042322,234.132766 215.861433,260.128785 225.215759,282.713176 C234.570085,305.297567 256.615004,320.016811 281.06,320 L281.06,320 C305.489986,320.000607 327.514708,305.284612 336.863741,282.714282 C346.212774,260.143952 341.044912,234.164305 323.77,216.89 L323.77,216.89 Z M96.2,276.89 L96.2,276.89 C86.7550515,286.34284 71.4636368,286.44 61.8993303,277.107944 C52.3350237,267.775888 52.056326,252.486705 61.2741743,242.812279 C70.4920226,233.137854 85.7768198,232.677659 95.56,241.78 L95.62,241.84 L95.62,241.84 L96.2,242.39 C105.724253,251.918013 105.724253,267.361987 96.2,276.89 Z M298.32,276.89 C293.743983,281.466863 287.537064,284.038189 281.065,284.038189 C274.592936,284.038189 268.386017,281.466863 263.81,276.89 L263.81,276.89 C254.285747,267.361987 254.285747,251.918013 263.81,242.39 L264.39,241.84 L264.39,241.84 L264.45,241.78 C274.20531,232.838467 289.309985,233.302868 298.497564,242.82681 C307.685144,252.350752 307.60637,267.462359 298.32,276.89 Z"/>
</svg>
