<svg xmlns="http://www.w3.org/2000/svg" width="360" height="360" viewBox="0 0 360 360">
  <path d="M258.76,340.26 L288.46,319.91 C263.677351,283.813079 248.978162,241.755723 245.88,198.08 L288.37,198.08 L288.37,162.08 L245.88,162.08 C248.976065,118.441049 263.653692,76.417194 288.4,40.34 L258.7,20 C229.84131,62.0651079 212.940563,111.174048 209.8,162.09 L150.65,162.09 C147.508942,111.174147 130.608239,62.0653351 101.75,20 L72.05,40.34 C96.8015276,76.419044 111.48271,118.446646 114.58,162.09 L72.36,162.09 L72.36,198.09 L114.57,198.09 C111.473061,241.76132 96.7774278,283.814927 72,319.91 L101.65,340.26 C130.559518,298.179517 147.495806,249.036632 150.65,198.08 L209.8,198.08 C212.941326,249.032965 229.863769,298.175794 258.76,340.26 L258.76,340.26 Z"/>
</svg>
