<svg xmlns="http://www.w3.org/2000/svg" width="360" height="360" viewBox="0 0 360 360">
  <g>
    <path d="M301.4,89.67 L265.4,89.67 C265.4,120.359114 249.027553,148.717026 222.45,164.061583 C195.872448,179.406141 163.127552,179.406141 136.55,164.061583 C109.972447,148.717026 93.5999995,120.359114 93.6,89.67 L57.6,89.67 C57.6770279,150.01083 101.823327,201.245013 161.49,210.24 L161.49,265.49 L125.49,265.49 L125.49,301.49 L161.49,301.49 L161.49,338.22 L197.49,338.22 L197.49,301.48 L233.2,301.48 L233.2,265.48 L197.5,265.48 L197.5,210.23 C257.166901,201.240041 301.317284,150.010298 301.4,89.67 L301.4,89.67 Z"/>
    <path d="M179.5,157.57 C217.000135,157.57 247.4,127.170135 247.4,89.67 C247.4,52.1698655 217.000135,21.77 179.5,21.77 C141.999865,21.77 111.6,52.1698655 111.6,89.67 C111.655073,127.147299 142.022701,157.514927 179.5,157.57 Z M179.5,57.77 C197.117884,57.77 211.4,72.0521165 211.4,89.67 C211.4,107.287884 197.117884,121.57 179.5,121.57 C161.882116,121.57 147.6,107.287884 147.6,89.67 C147.616539,72.0589716 161.888972,57.7865388 179.5,57.77 L179.5,57.77 Z"/>
  </g>
</svg>
