<svg xmlns="http://www.w3.org/2000/svg" width="360" height="360" viewBox="0 0 360 360">
  <path d="M231,286.87 L256.61,240.24 C273.353066,211.032465 268.27083,174.20449 244.242956,150.623319 C220.215083,127.042147 183.298229,122.651838 154.41,139.94 L154.41,95.59 L192.21,95.59 L192.21,59.59 L154.41,59.59 L154.41,21.79 L118.41,21.79 L118.41,59.59 L80.65,59.59 L80.65,95.59 L118.45,95.59 L118.45,271.59 L154.45,271.59 L154.45,203.33 C154.491728,187.36978 164.502183,173.136494 179.508362,167.700967 C194.514541,162.265441 211.318067,166.786186 221.571269,179.017384 C231.824472,191.248582 233.34201,208.583308 225.37,222.41 L199.48,269.53 L199.48,269.53 C191.440642,283.723357 191.519239,301.112803 199.68657,315.232908 C207.8539,329.353014 222.888319,338.091735 239.2,338.2 L239.48,338.2 C255.916306,338.185515 271.102245,329.422931 279.34,315.2 L248.16,297.2 C246.336639,300.300678 243.007059,302.203295 239.41,302.2 C237.684012,302.192596 235.990464,301.730406 234.5,300.86 C229.717318,298.098496 228.078707,291.982803 230.84,287.2"/>
</svg>
