<svg xmlns="http://www.w3.org/2000/svg" width="360" height="360" viewBox="0 0 360 360">
  <path d="M259.19,215.480246 L284.65,240.940246 L302.01,223.580246 L302.01,273.660246 C302.01,289.400361 289.250115,302.160246 273.51,302.160246 C257.769885,302.160246 245.01,289.400361 245.01,273.660246 L245.01,86.5002456 C244.97141,50.8899721 216.110279,22.0333146 180.5,22.0002456 L180.5,22.0002456 C163.383996,21.9528945 146.960396,28.7549508 134.89,40.8902456 C134.58,41.2002456 134.28,41.5302456 133.98,41.8902456 C121.85239,29.191915 105.059228,22.0056842 87.5,22.0002456 L87.5,22.0002456 C51.8776336,22.0002456 23,50.8778792 23,86.5002456 L23,291.360246 L59,291.360246 L59,86.5002456 C59,70.7601302 71.7598846,58.0002456 87.5,58.0002456 C103.240115,58.0002456 116,70.7601302 116,86.5002456 L116,291.360246 L152,291.360246 L152,86.5002456 C152,76.3181761 157.432069,66.9095557 166.25,61.8185209 C175.067931,56.727486 185.932069,56.727486 194.75,61.8185209 C203.567931,66.9095557 209,76.3181761 209,86.5002456 L209,273.660246 C209.03858,309.266619 237.893626,338.121666 273.5,338.160246 L273.5,338.160246 C309.122366,338.160246 338,309.282612 338,273.660246 L338,136.660246 L259.19,215.480246 Z"/>
</svg>
