<svg xmlns="http://www.w3.org/2000/svg" width="360" height="360" viewBox="0 0 360 360">
  <path d="M36.23,143.11 C45.1076981,152.042854 56.5735357,157.952467 69,160 C50.5815936,209.277998 66.8565143,264.799563 108.963824,296.335784 C151.071133,327.872005 208.928867,327.872005 251.036176,296.335784 C293.143486,264.799563 309.418406,209.277998 291,160 C318.501548,155.416411 339.292226,132.604292 341.311661,104.796626 C343.331097,76.9889597 326.054483,51.4123357 299.503735,42.9033861 C272.952988,34.3944365 244.028051,45.1644465 229.507866,68.965888 C214.98768,92.7673295 218.645716,123.414741 238.36,143.13 L238.93,143.67 C270.704775,176.060719 270.372219,228.027215 238.185499,260.008617 C205.99878,291.990019 154.03122,291.990019 121.844501,260.008617 C89.657781,228.027215 89.3252251,176.060719 121.1,143.67 L121.66,143.14 C138.957678,125.867234 144.138567,99.8712145 134.784241,77.2868239 C125.429915,54.7024333 103.384996,39.9831891 78.94,40 L78.94,40 C54.5100141,39.9993929 32.4852925,54.7153877 23.1362595,77.2857176 C13.7872265,99.8560475 18.9550878,125.835695 36.23,143.11 L36.23,143.11 Z M263.8,83.11 L263.8,83.11 C273.244949,73.6571603 288.536363,73.5599996 298.10067,82.8920557 C307.664976,92.2241118 307.943674,107.513295 298.725826,117.187721 C289.507977,126.862146 274.22318,127.322341 264.44,118.22 L264.38,118.16 L264.38,118.16 L263.8,117.61 C254.275747,108.081987 254.275747,92.6380131 263.8,83.11 L263.8,83.11 Z M61.68,83.11 C66.2560172,78.5331368 72.4629362,75.9618108 78.935,75.9618108 C85.4070638,75.9618108 91.6139828,78.5331368 96.19,83.11 L96.19,83.11 C105.714253,92.6380131 105.714253,108.081987 96.19,117.61 L95.61,118.16 L95.61,118.16 L95.55,118.22 C85.762731,126.836121 70.930665,126.234321 61.8736054,116.853603 C52.8165457,107.472886 52.7356806,92.6288368 61.69,83.15 L61.68,83.11 Z"/>
</svg>
