<svg xmlns="http://www.w3.org/2000/svg" width="360" height="360" viewBox="0 0 360 360">
  <path d="M301.3384,87 C283.1674,87 266.0834,94.077 253.2324,106.928 C248.5164,111.644 243.4524,115.803 238.1294,119.423 C265.6174,138.166 283.7014,169.725 283.7014,205.432 C283.7014,262.796 237.0324,309.465 179.6694,309.465 C122.3054,309.465 75.6354,262.796 75.6354,205.432 C75.6354,169.725 93.7204,138.166 121.2084,119.423 C115.8854,115.804 110.8224,111.644 106.1064,106.928 C93.2554,94.078 76.1714,87.001 58.0004,87.001 L58.0004,51.001 C85.7874,51.001 111.9114,61.822 131.5624,81.472 C158.0884,107.996 201.2484,107.997 227.7764,81.471 C247.4274,61.821 273.5524,51 301.3384,51 L301.3384,87 Z M179.6694,273.465 C217.1824,273.465 247.7014,242.945 247.7014,205.432 C247.7014,167.918 217.1824,137.399 179.6694,137.399 C142.1554,137.399 111.6354,167.918 111.6354,205.432 C111.6354,242.945 142.1554,273.465 179.6694,273.465 Z"/>
</svg>
