<svg xmlns="http://www.w3.org/2000/svg" width="360" height="360" viewBox="0 0 360 360">
  <path d="M268.29,162 L268.29,21.89 L232.29,21.89 L232.29,73.89 L198,73.89 L198,21.89 L162,21.89 L162,73.89 L127.71,73.89 L127.71,21.89 L91.71,21.89 L91.71,162 L127.71,162 L127.71,110 L162,110 L162,164.35 C117.945586,173.57327 87.990956,214.603957 92.6272529,259.37409 C97.2635498,304.144223 134.990445,338.165959 180,338.165959 C225.009555,338.165959 262.73645,304.144223 267.372747,259.37409 C272.009044,214.603957 242.054414,173.57327 198,164.35 L198,109.94 L232.29,109.94 L232.29,161.94 L268.29,162 Z M232.74,250.29 C232.728955,279.414892 209.111565,303.017361 179.986672,303.009998 C150.861779,303.002636 127.256324,279.388229 127.260004,250.263336 C127.263684,221.138442 150.875106,197.530002 180,197.53 C209.113791,197.563065 232.706935,221.156209 232.74,250.27 L232.74,250.29 Z"/>
</svg>
