<svg xmlns="http://www.w3.org/2000/svg" width="360" height="360" viewBox="0 0 360 360">
  <g>
    <path d="M198,130.91 L198,87.14 L223.87,113 L249.33,87.54 L180,18.23 L110.68,87.55 L136.13,113 L162,87.14 L162,130.91 C107.646728,140.257664 69.4940019,189.654821 74.1848321,244.606192 C78.8756622,299.557563 124.84878,341.773461 180,341.773461 C235.15122,341.773461 281.124338,299.557563 285.815168,244.606192 C290.505998,189.654821 252.353272,140.257664 198,130.91 L198,130.91 Z M180,305.77 C141.229611,305.77 109.8,274.340389 109.8,235.57 C109.8,196.799611 141.229611,165.37 180,165.37 C218.770389,165.37 250.2,196.799611 250.2,235.57 C250.155913,274.322113 218.752113,305.725913 180,305.77 Z"/>
    <circle cx="180" cy="235.57" r="18"/>
  </g>
</svg>
