<svg xmlns="http://www.w3.org/2000/svg" width="360" height="360" viewBox="0 0 360 360">
  <path d="M284.58,126.64 C284.559056,71.548589 241.580319,26.0315067 186.580684,22.8527974 C131.58105,19.6740881 83.6446651,59.9367219 77.2770337,114.658904 C70.9094024,169.381087 108.320008,219.574943 162.58,229.11 L162.58,266.54 L126.68,266.54 L126.68,302.54 L162.54,302.54 L162.54,338.4 L198.54,338.4 L198.54,302.53 L234.4,302.53 L234.4,266.53 L198.55,266.53 L198.55,229.11 C248.264625,220.306111 284.515277,177.128099 284.58,126.64 L284.58,126.64 Z M112.51,126.64 C112.51,89.084637 142.954637,58.64 180.51,58.64 C218.065363,58.64 248.51,89.084637 248.51,126.64 C248.51,164.195363 218.065363,194.64 180.51,194.64 C142.979752,194.579436 112.570564,164.170248 112.51,126.64 L112.51,126.64 Z"/>
</svg>
