<svg xmlns="http://www.w3.org/2000/svg" width="360" height="360" viewBox="0 0 360 360">
  <path d="M337.01,86.5002456 C336.97141,50.8899721 308.110279,22.0333146 272.5,22.0002456 L272.5,22.0002456 C255.383996,21.9528945 238.960396,28.7549508 226.89,40.8902456 C226.58,41.2002456 226.28,41.5302456 225.98,41.8902456 C213.85239,29.191915 197.059228,22.0056842 179.5,22.0002456 L179.5,22.0002456 C162.383996,21.9528945 145.960396,28.7549508 133.89,40.8902456 C133.58,41.2002456 133.28,41.5302456 132.98,41.8902456 C120.85239,29.191915 104.059228,22.0056842 86.5,22.0002456 L86.5,22.0002456 C50.8776336,22.0002456 22,50.8778792 22,86.5002456 L22,291.360246 L58,291.360246 L58,86.5002456 C58,70.7601302 70.7598846,58.0002456 86.5,58.0002456 C102.240115,58.0002456 115,70.7601302 115,86.5002456 L115,291.360246 L151,291.360246 L151,86.5002456 C151,76.3181761 156.432069,66.9095557 165.25,61.8185209 C174.067931,56.727486 184.932069,56.727486 193.75,61.8185209 C202.567931,66.9095557 208,76.3181761 208,86.5002456 L208,193.820246 C192.12,206.200246 162.26,237.440246 162.26,297.290246 C162.26,319.862123 180.558122,338.160246 203.13,338.160246 C225.701878,338.160246 244,319.862123 244,297.290246 L244,214.170246 C270.32,199.400246 337.01,155.210246 337.01,86.5002456 Z M208.01,297.300246 C208.01,299.989872 205.829627,302.170246 203.14,302.170246 C200.450373,302.170246 198.27,299.989872 198.27,297.300246 C198.27,277.420246 202.47,262.020246 208.01,250.360246 L208.01,297.300246 Z M244.01,171.670246 L244.01,86.5002456 C244.01,70.7601302 256.769885,58.0002456 272.51,58.0002456 C288.250115,58.0002456 301.01,70.7601302 301.01,86.5002456 C301.01,124.970246 268.27,154.820246 244,171.660246 L244.01,171.670246 Z"/>
</svg>
